<svg width="70" height="70" viewBox="0 0 70 70" fill="none" xmlns="http://www.w3.org/2000/svg">
<path fill-rule="evenodd" clip-rule="evenodd" d="M21.5958 50.6239C31.5781 49.1656 38.4512 49.291 48.4466 50.675C49.1705 50.7799 49.832 51.1432 50.3088 51.6978C50.7857 52.2524 51.0458 52.9609 51.041 53.6923C51.041 54.3923 50.8004 55.0718 50.3658 55.6027C49.6084 56.5282 48.8324 57.4384 48.0383 58.3327H51.8898C52.1319 58.0439 52.3754 57.7494 52.6218 57.4504C53.4869 56.3896 53.9588 55.0625 53.9577 53.6937C53.9577 50.7406 51.8023 48.1958 48.8462 47.7875C38.6146 46.3714 31.4629 46.2358 21.1743 47.7393C18.1877 48.1754 16.041 50.7596 16.041 53.7331C16.041 55.0529 16.4712 56.3581 17.2864 57.4154C17.5271 57.7275 17.7648 58.0337 18.001 58.3341H21.7591C21.0204 57.4497 20.2998 56.5502 19.5979 55.6362C19.1808 55.0891 18.9557 54.4197 18.9577 53.7316C18.9577 52.161 20.0864 50.8441 21.5958 50.6239ZM34.9993 36.4577C36.1484 36.4577 37.2862 36.2314 38.3478 35.7916C39.4094 35.3519 40.374 34.7074 41.1865 33.8949C41.999 33.0824 42.6436 32.1178 43.0833 31.0562C43.523 29.9946 43.7493 28.8567 43.7493 27.7077C43.7493 26.5586 43.523 25.4208 43.0833 24.3592C42.6436 23.2976 41.999 22.333 41.1865 21.5205C40.374 20.708 39.4094 20.0635 38.3478 19.6237C37.2862 19.184 36.1484 18.9577 34.9993 18.9577C32.6787 18.9577 30.4531 19.8796 28.8122 21.5205C27.1712 23.1614 26.2493 25.387 26.2493 27.7077C26.2493 30.0283 27.1712 32.2539 28.8122 33.8949C30.4531 35.5358 32.6787 36.4577 34.9993 36.4577ZM34.9993 39.3743C38.0935 39.3743 41.061 38.1452 43.2489 35.9573C45.4369 33.7693 46.666 30.8019 46.666 27.7077C46.666 24.6135 45.4369 21.646 43.2489 19.4581C41.061 17.2702 38.0935 16.041 34.9993 16.041C31.9052 16.041 28.9377 17.2702 26.7498 19.4581C24.5618 21.646 23.3327 24.6135 23.3327 27.7077C23.3327 30.8019 24.5618 33.7693 26.7498 35.9573C28.9377 38.1452 31.9052 39.3743 34.9993 39.3743Z" fill="#082673"/>
<path fill-rule="evenodd" clip-rule="evenodd" d="M34.9997 61.2497C49.497 61.2497 61.2497 49.497 61.2497 34.9997C61.2497 20.5024 49.497 8.74967 34.9997 8.74967C20.5024 8.74967 8.74967 20.5024 8.74967 34.9997C8.74967 49.497 20.5024 61.2497 34.9997 61.2497ZM34.9997 64.1663C51.1084 64.1663 64.1663 51.1084 64.1663 34.9997C64.1663 18.8909 51.1084 5.83301 34.9997 5.83301C18.8909 5.83301 5.83301 18.8909 5.83301 34.9997C5.83301 51.1084 18.8909 64.1663 34.9997 64.1663Z" fill="#082673"/>
</svg>
