<svg width="135" height="76" viewBox="0 0 135 76" fill="none" xmlns="http://www.w3.org/2000/svg">
<path d="M1.00003 72.0074C1.00412 72.5597 1.45514 73.0041 2.00741 73L11.0072 72.9333C11.5594 72.9292 12.0038 72.4782 11.9997 71.9259C11.9956 71.3737 11.5446 70.9293 10.9923 70.9334L2.99256 70.9926L2.93331 62.9928C2.92922 62.4406 2.4782 61.9962 1.92593 62.0003C1.37366 62.0044 0.92927 62.4554 0.933361 63.0077L1.00003 72.0074ZM68.2877 3.29815L1.28767 71.2982L2.71232 72.7019L69.7123 4.70185L68.2877 3.29815Z" fill="white"/>
<path d="M132.375 75.4943C132.926 75.5311 133.402 75.1142 133.439 74.5632L134.039 65.5832C134.076 65.0321 133.659 64.5555 133.108 64.5187C132.557 64.4819 132.08 64.8988 132.043 65.4499L131.51 73.4321L123.528 72.8989C122.977 72.8621 122.5 73.279 122.463 73.83C122.427 74.3811 122.843 74.8576 123.395 74.8944L132.375 75.4943ZM67.9505 2.2922L131.688 75.1549L133.194 73.8381L69.4558 0.975383L67.9505 2.2922Z" fill="white"/>
</svg>
