<svg width="75" height="47" viewBox="0 0 75 47" fill="none" xmlns="http://www.w3.org/2000/svg">
<path d="M9.375 28.2H72.6562C73.291 28.2 73.8403 28.4326 74.3042 28.8977C74.7681 29.3628 75 29.9135 75 30.55V47H65.625V37.6H9.375V47H0V2.35C0 1.71354 0.231934 1.16276 0.695801 0.697656C1.15967 0.232552 1.70898 0 2.34375 0H7.03125C7.66602 0 8.21533 0.232552 8.6792 0.697656C9.14307 1.16276 9.375 1.71354 9.375 2.35V28.2ZM30.4688 16.45C30.4688 13.8552 29.5532 11.6398 27.7222 9.80391C25.8911 7.96797 23.6816 7.05 21.0938 7.05C18.5059 7.05 16.2964 7.96797 14.4653 9.80391C12.6343 11.6398 11.7188 13.8552 11.7188 16.45C11.7188 19.0448 12.6343 21.2602 14.4653 23.0961C16.2964 24.932 18.5059 25.85 21.0938 25.85C23.6816 25.85 25.8911 24.932 27.7222 23.0961C29.5532 21.2602 30.4688 19.0448 30.4688 16.45ZM75 25.85V23.5C75 19.6078 73.6267 16.2848 70.8801 13.5309C68.1335 10.777 64.8193 9.4 60.9375 9.4H35.1562C34.5215 9.4 33.9722 9.63255 33.5083 10.0977C33.0444 10.5628 32.8125 11.1135 32.8125 11.75V25.85H75Z" fill="#FF0202"/>
</svg>
